<?xml version="1.0" standalone="no"?>
<!-- Generator: Adobe Fireworks 10, Export SVG Extension by Aaron Beall (http://fireworks.abeall.com) . Version: 0.6.1  -->
<!DOCTYPE svg PUBLIC "-//W3C//DTD SVG 1.1//EN" "http://www.w3.org/Graphics/SVG/1.1/DTD/svg11.dtd">
<svg id="Untitled-Page%201" viewBox="0 0 14 14" style="background-color:#ffffff00" version="1.1"
	xmlns="http://www.w3.org/2000/svg" xmlns:xlink="http://www.w3.org/1999/xlink" xml:space="preserve"
	x="0px" y="0px" width="14px" height="14px"
>
	<defs>
		<!-- Library -->
		<symbol id="symdisabled" overflow="visible">
			<g id="Layer%2012">
				<g>
					<path d="M -3.5469 6.0781 C -2.4844 6.7031 -1.3125 7 0 7 C 1.2969 7 2.4844 6.7031 3.5469 6.0781 C 4.6094 5.4531 5.4375 4.6094 6.0625 3.5469 C 6.6875 2.4844 7 1.3125 7 0 C 7 -1.2969 6.6875 -2.4844 6.0625 -3.5469 C 5.4375 -4.6094 4.6094 -5.4375 3.5469 -6.0625 C 2.4844 -6.6875 1.2969 -7 0 -7 C -1.3125 -7 -2.4844 -6.6875 -3.5469 -6.0625 C -4.6094 -5.4375 -5.4531 -4.6094 -6.0781 -3.5469 C -6.7031 -2.4844 -7 -1.2969 -7 0 C -7 1.3125 -6.7031 2.4844 -6.0781 3.5469 C -5.4531 4.6094 -4.6094 5.4531 -3.5469 6.0781 L -3.5469 6.0781 ZM -3.5313 -3.5313 C -2.5625 -4.5 -1.375 -5 0 -5 C 0.9375 -5 1.7969 -4.75 2.6094 -4.25 L -4.25 2.5938 C -4.75 1.7969 -5 0.9375 -5 0 C -5 -1.375 -4.5156 -2.5469 -3.5313 -3.5313 L -3.5313 -3.5313 ZM 4.2813 -2.5313 C 4.75 -1.75 5 -0.9063 5 0 C 5 1.375 4.5 2.5625 3.5313 3.5313 C 2.5469 4.5156 1.375 5 0 5 C -0.9063 5 -1.75 4.7656 -2.5313 4.2813 L 4.2813 -2.5313 L 4.2813 -2.5313 Z" fill="rgba(0,0,0,0.6)"/>
				</g>
			</g>

		</symbol>
		<!-- End Library -->

	</defs>
	<g id="Layer%201">
		<use id="sym-disabled" xlink:href="#symdisabled" transform="matrix(1, 0, 0, 1, 7, 7)"/>
	</g>
</svg>