<?xml version="1.0" standalone="no"?>
<!-- Generator: Adobe Fireworks 10, Export SVG Extension by Aaron Beall (http://fireworks.abeall.com) . Version: 0.6.1  -->
<!DOCTYPE svg PUBLIC "-//W3C//DTD SVG 1.1//EN" "http://www.w3.org/Graphics/SVG/1.1/DTD/svg11.dtd">
<svg id="Untitled-Page%201" viewBox="0 0 367 31" style="background-color:#ffffff00" version="1.1"
	xmlns="http://www.w3.org/2000/svg" xmlns:xlink="http://www.w3.org/1999/xlink" xml:space="preserve"
	x="0px" y="0px" width="367px" height="31px"
>
	<g id="Layer%201">
		<path d="M 14 12.5 L 14 18.5 L 113.29 18.5 C 114.6873 25.6248 120.9658 31 128.5 31 C 136.0342 31 142.3127 25.6248 143.71 18.5 L 235.79 18.5 C 237.1873 25.6248 243.4658 31 251 31 C 258.5342 31 264.8127 25.6248 266.21 18.5 L 335.79 18.5 C 337.1873 25.6248 343.4658 31 351 31 C 359.5605 31 366.5 24.0605 366.5 15.5 C 366.5 6.9395 359.5605 0 351 0 C 343.4658 0 337.1873 5.3752 335.79 12.5 L 266.21 12.5 C 264.8127 5.3752 258.5342 0 251 0 C 243.4658 0 237.1873 5.3752 235.79 12.5 L 143.71 12.5 C 142.3127 5.3752 136.0342 0 128.5 0 C 120.9658 0 114.6873 5.3752 113.29 12.5 L 14 12.5 Z" fill="#717171"/>
		<path id="Ellipse" d="M -0.5 15.5 C -0.5 6.9395 6.4395 0 15 0 C 23.5605 0 30.5 6.9395 30.5 15.5 C 30.5 24.0605 23.5605 31 15 31 C 6.4395 31 -0.5 24.0605 -0.5 15.5 Z" fill="#717171"/>
	</g>
</svg>