<?xml version="1.0" standalone="no"?>
<!-- Generator: Adobe Fireworks 10, Export SVG Extension by Aaron Beall (http://fireworks.abeall.com) . Version: 0.6.1  -->
<!DOCTYPE svg PUBLIC "-//W3C//DTD SVG 1.1//EN" "http://www.w3.org/Graphics/SVG/1.1/DTD/svg11.dtd">
<svg id="Untitled-Page%201" viewBox="0 0 39 33" style="background-color:#ffffff00" version="1.1"
	xmlns="http://www.w3.org/2000/svg" xmlns:xlink="http://www.w3.org/1999/xlink" xml:space="preserve"
	x="0px" y="0px" width="39px" height="33px"
>
	<g id="Layer%201">
		<g>
			<g>
				<g>
					<g>
						<g>
							<g>
								<g>
									<g>
										<g>
											<g>
												<g>
													<g>
														<g>
															<g>
																<g>
																	<path d="M 16.4437 24.1111 C 15.2737 24.1111 14.2939 23.1404 14.0298 21.898 L 18.8588 21.898 C 18.5945 23.1404 17.6151 24.1111 16.4437 24.1111 ZM 21.2478 18.7393 C 21.2478 20.0975 22.0924 20.2393 23.111 21.3451 L 9.7778 21.3451 C 10.7964 20.2393 11.6556 20.0058 11.6556 18.648 L 11.6556 15.8702 C 11.6683 13.6571 13.1124 11.5081 15.2987 10.9728 C 15.2987 10.9728 15.353 9.8888 16.4437 9.8888 C 17.5179 9.8888 17.5897 11.0044 17.5897 11.0044 C 19.7767 11.5424 21.2389 13.6571 21.2478 15.8702 L 21.2478 18.7393 ZM 0 16.9999 C 0 25.8366 7.1633 33 16 33 C 24.8367 33 32 25.8366 32 16.9999 C 32 8.1633 24.8367 1 16 1 C 7.1633 1 0 8.1633 0 16.9999 Z" fill="#ffffff"/>
																</g>
															</g>
														</g>
													</g>
												</g>
											</g>
										</g>
									</g>
								</g>
							</g>
						</g>
					</g>
				</g>
			</g>
		</g>
		<path id="Ellipse" d="M 25 18 C 25 14.134 28.1339 11 32 11 C 35.8661 11 39 14.134 39 18 C 39 21.866 35.8661 25 32 25 C 28.1339 25 25 21.866 25 18 Z" fill="#00a2e8"/>
	</g>
</svg>