<?xml version="1.0" standalone="no"?>
<!-- Generator: Adobe Fireworks 10, Export SVG Extension by Aaron Beall (http://fireworks.abeall.com) . Version: 0.6.1  -->
<!DOCTYPE svg PUBLIC "-//W3C//DTD SVG 1.1//EN" "http://www.w3.org/Graphics/SVG/1.1/DTD/svg11.dtd">
<svg id="Untitled-Page%201" viewBox="0 0 32 32" style="background-color:#ffffff00" version="1.1"
	xmlns="http://www.w3.org/2000/svg" xmlns:xlink="http://www.w3.org/1999/xlink" xml:space="preserve"
	x="0px" y="0px" width="32px" height="32px"
>
	<g id="Layer%201">
		<path d="M 16.4437 23.1111 C 15.2737 23.1111 14.2939 22.1404 14.0298 20.898 L 18.8588 20.898 C 18.5945 22.1404 17.6151 23.1111 16.4437 23.1111 ZM 21.2478 17.7393 C 21.2478 19.0975 22.0924 19.2393 23.111 20.3451 L 9.7778 20.3451 C 10.7964 19.2393 11.6556 19.0058 11.6556 17.648 L 11.6556 14.8702 C 11.6683 12.6571 13.1124 10.5081 15.2987 9.9728 C 15.2987 9.9728 15.353 8.8888 16.4437 8.8888 C 17.5179 8.8888 17.5897 10.0044 17.5897 10.0044 C 19.7767 10.5424 21.2389 12.6571 21.2478 14.8702 L 21.2478 17.7393 ZM 0 15.9999 C 0 24.8366 7.1633 32 16 32 C 24.8367 32 32 24.8366 32 15.9999 C 32 7.1633 24.8367 0 16 0 C 7.1633 0 0 7.1633 0 15.9999 Z" fill="#ffffff"/>
	</g>
</svg>