<?xml version="1.0" standalone="no"?>
<!-- Generator: Adobe Fireworks 10, Export SVG Extension by Aaron Beall (http://fireworks.abeall.com) . Version: 0.6.1  -->
<!DOCTYPE svg PUBLIC "-//W3C//DTD SVG 1.1//EN" "http://www.w3.org/Graphics/SVG/1.1/DTD/svg11.dtd">
<svg id="Untitled-Page%201" viewBox="0 0 42 36" style="background-color:#ffffff00" version="1.1"
	xmlns="http://www.w3.org/2000/svg" xmlns:xlink="http://www.w3.org/1999/xlink" xml:space="preserve"
	x="0px" y="0px" width="42px" height="36px"
>
	<defs>
		<!-- Library -->
		<symbol id="symfileimage" overflow="visible">
			<g id="Layer%2012">
				<g>
					<path id="appbar.image" d="M -7.9167 -11.0833 C -7.9167 -7.5854 -10.7522 -4.75 -14.25 -4.75 C -14.7966 -4.75 -15.4939 -4.8698 -16 -5 L -16 -13 L -8.3334 -13 C -8.2031 -12.4939 -7.9167 -11.6301 -7.9167 -11.0833 L -7.9167 -11.0833 ZM -14 13 L -7.9167 6.3333 L -4.75 9.5 L 7.9167 -3.1667 L 12.6667 1.5833 L 16 -2 L 16 13 L -14 13 L -14 13 ZM -18 -15 L -18 15 L 18 15 L 18 -15 L -18 -15 L -18 -15 ZM -21 -18 L 21 -18 L 21 18 L -21 18 L -21 -18 L -21 -18 Z" fill="#000000"/>
				</g>
			</g>

		</symbol>
		<!-- End Library -->

	</defs>
	<g id="Layer%201">
		<use id="sym-file-image" opacity="0.302" xlink:href="#symfileimage" transform="matrix(1, 0, 0, 1, 21, 18)"/>
	</g>
</svg>