<?xml version="1.0" encoding="utf-8"?>
<!-- Generator: Adobe Illustrator 19.0.1, SVG Export Plug-In . SVG Version: 6.00 Build 0)  -->
<svg version="1.1" id="Layer_1" xmlns="http://www.w3.org/2000/svg" xmlns:xlink="http://www.w3.org/1999/xlink" x="0px" y="0px"
	 viewBox="-55 147 500 500" style="enable-background:new -55 147 500 500;" xml:space="preserve">
<style type="text/css">
	.st0{fill:#959595;}
</style>
<g id="ui-icon-carat-1-n">
	<polygon class="st0" points="-31.6,180.2 -39.4,172.4 -47.2,180.2 -44.3,183.1 -39.4,178.3 -34.5,183.1 	"/>
</g>
<g id="ui-icon-carat-1-ne">
	<polygon class="st0" points="-14,172.4 -14,176.3 -6.2,176.3 -6.2,184.1 -2.3,184.1 -2.3,172.4 	"/>
</g>
<g id="ui-icon-carat-1-e">
	<polygon class="st0" points="21.2,186.1 29,178.3 21.2,170.4 18.2,173.4 23.1,178.3 18.2,183.1 	"/>
</g>
<g id="ui-icon-carat-1-se">
	<polygon class="st0" points="56.3,172.4 56.3,180.2 48.5,180.2 48.5,184.1 60.2,184.1 60.2,172.4 	"/>
</g>
<g id="ui-icon-carat-1-s">
	<polygon class="st0" points="77.8,176.3 85.6,184.1 93.4,176.3 90.5,173.4 85.6,178.3 80.7,173.4 	"/>
</g>
<g id="ui-icon-carat-1-sw">
	<polygon class="st0" points="114.9,180.2 114.9,172.4 111,172.4 111,184.1 122.7,184.1 122.7,180.2 	"/>
</g>
<g id="ui-icon-carat-1-w">
	<polygon class="st0" points="150.1,170.4 142.3,178.3 150.1,186.1 153,183.1 148.1,178.3 153,173.4 	"/>
</g>
<g id="ui-icon-carat-1-nw">
	<polygon class="st0" points="185.2,172.4 173.5,172.4 173.5,184.1 177.4,184.1 177.4,176.3 185.2,176.3 	"/>
</g>
<g id="ui-icon-carat-2-n-s">
	<polygon class="st0" points="202.8,182.2 210.6,190 218.4,182.2 215.5,179.2 210.6,184.1 205.7,179.2 	"/>
	<polygon class="st0" points="218.4,174.3 210.6,166.5 202.8,174.3 205.7,177.3 210.6,172.4 215.5,177.3 	"/>
</g>
<g id="ui-icon-carat-2-e-w">
	<polygon class="st0" points="245.8,186.1 253.6,178.3 245.8,170.4 242.9,173.4 247.7,178.3 242.9,183.1 	"/>
	<polygon class="st0" points="238,170.4 230.2,178.3 238,186.1 240.9,183.1 236,178.3 240.9,173.4 	"/>
</g>
<g id="ui-icon-triangle-1-n">
	<polygon class="st0" points="-29.6,213.4 -39.4,203.6 -49.1,213.4 	"/>
</g>
<g id="ui-icon-triangle-1-ne">
	<polygon class="st0" points="-2.3,217.3 -2.3,203.6 -15.9,203.6 	"/>
</g>
<g id="ui-icon-triangle-1-e">
	<polygon class="st0" points="19.2,219.3 29,209.5 19.2,199.7 	"/>
</g>
<g id="ui-icon-triangle-1-se">
	<polygon class="st0" points="46.6,215.4 60.2,215.4 60.2,201.7 	"/>
</g>
<g id="ui-icon-triangle-1-s">
	<polygon class="st0" points="75.9,205.6 85.6,215.4 95.4,205.6 	"/>
</g>
<g id="ui-icon-triangle-1-sw">
	<polygon class="st0" points="111,201.7 111,215.4 124.7,215.4 	"/>
</g>
<g id="ui-icon-triangle-1-w">
	<polygon class="st0" points="152,199.7 142.3,209.5 152,219.3 	"/>
</g>
<g id="ui-icon-triangle-1-nw">
	<polygon class="st0" points="187.2,203.6 173.5,203.6 173.5,217.3 	"/>
</g>
<g id="ui-icon-triangle-2-n-s">
	<polygon class="st0" points="200.9,211.5 210.6,221.2 220.4,211.5 	"/>
	<polygon class="st0" points="220.4,207.5 210.6,197.8 200.9,207.5 	"/>
</g>
<g id="ui-icon-triangle-2-e-w">
	<polygon class="st0" points="243.8,219.3 253.6,209.5 243.8,199.7 	"/>
	<polygon class="st0" points="239.9,199.7 230.2,209.5 239.9,219.3 	"/>
</g>
<g id="ui-icon-arrow-1-n">
	<polygon class="st0" points="-39.4,231 -45.2,236.8 -41.3,236.8 -41.3,250.5 -37.4,250.5 -37.4,236.8 -33.5,236.8 	"/>
</g>
<g id="ui-icon-arrow-1-ne">
	<polygon class="st0" points="-0.3,232.9 -8.1,232.9 -5.7,235.4 -18.4,248.1 -15.4,251 -2.8,238.3 -0.3,240.8 	"/>
</g>
<g id="ui-icon-arrow-1-e">
	<polygon class="st0" points="32.9,240.8 27,234.9 27,238.8 13.4,238.8 13.4,242.7 27,242.7 27,246.6 	"/>
</g>
<g id="ui-icon-arrow-1-se">
	<polygon class="st0" points="62.2,248.6 62.2,240.8 59.7,243.2 47.1,230.5 44.1,233.4 56.8,246.1 54.4,248.6 	"/>
</g>
<g id="ui-icon-arrow-1-s">
	<polygon class="st0" points="85.6,250.5 91.5,244.7 87.6,244.7 87.6,231 83.7,231 83.7,244.7 79.8,244.7 	"/>
</g>
<g id="ui-icon-arrow-1-sw">
	<polygon class="st0" points="109.1,248.6 116.9,248.6 114.4,246.1 127.1,233.4 124.2,230.5 111.5,243.2 109.1,240.8 	"/>
</g>
<g id="ui-icon-arrow-1-w">
	<polygon class="st0" points="138.4,240.8 144.2,246.6 144.2,242.7 157.9,242.7 157.9,238.8 144.2,238.8 144.2,234.9 	"/>
</g>
<g id="ui-icon-arrow-1-nw">
	<polygon class="st0" points="171.6,232.9 171.6,240.8 174,238.3 186.7,251 189.6,248.1 176.9,235.4 179.4,232.9 	"/>
</g>
<g id="ui-icon-arrow-2-n-s">
	<polygon class="st0" points="212.6,234.9 216.5,234.9 210.6,229 204.8,234.9 208.7,234.9 208.7,246.6 204.8,246.6 210.6,252.5 
		216.5,246.6 212.6,246.6 	"/>
</g>
<g id="ui-icon-arrow-2-ne-sw">
	<polygon class="st0" points="243.8,231 246.3,233.4 234.6,245.1 232.1,242.7 232.1,250.5 239.9,250.5 237.5,248.1 249.2,236.4 
		251.6,238.8 251.6,231 	"/>
</g>
<g id="ui-icon-arrow-2-e-w">
	<polygon class="st0" points="267.3,238.8 267.3,234.9 261.4,240.8 267.3,246.6 267.3,242.7 279,242.7 279,246.6 284.8,240.8 
		279,234.9 279,238.8 	"/>
</g>
<g id="ui-icon-arrow-2-se-nw">
	<polygon class="st0" points="311.7,245.1 300,233.4 302.4,231 294.6,231 294.6,238.8 297.1,236.4 308.8,248.1 306.3,250.5 
		314.1,250.5 314.1,242.7 	"/>
</g>
<g id="ui-icon-arrowstop-1-n">
	<rect x="327.8" y="231" class="st0" width="15.6" height="3.9"/>
	<polygon class="st0" points="335.6,236.8 329.8,242.7 333.7,242.7 333.7,250.5 337.6,250.5 337.6,242.7 341.5,242.7 	"/>
</g>
<g id="ui-icon-arrowstop-1-e">
	<rect x="372.7" y="232.9" class="st0" width="3.9" height="15.6"/>
	<polygon class="st0" points="370.8,240.8 364.9,234.9 364.9,238.8 357.1,238.8 357.1,242.7 364.9,242.7 364.9,246.6 	"/>
</g>
<g id="ui-icon-arrowstop-1-s">
	<rect x="390.3" y="246.6" class="st0" width="15.6" height="3.9"/>
	<polygon class="st0" points="398.1,244.7 404,238.8 400.1,238.8 400.1,231 396.2,231 396.2,238.8 392.3,238.8 	"/>
</g>
<g id="ui-icon-arrowstop-1-w">
	<rect x="419.6" y="232.9" class="st0" width="3.9" height="15.6"/>
	<polygon class="st0" points="425.5,240.8 431.3,246.6 431.3,242.7 439.1,242.7 439.1,238.8 431.3,238.8 431.3,234.9 	"/>
</g>
<g id="ui-icon-arrowthick-1-n">
	<polygon class="st0" points="-39.4,260.3 -49.1,270 -43.3,270 -43.3,283.7 -35.5,283.7 -35.5,270 -29.6,270 	"/>
</g>
<g id="ui-icon-arrowthick-1-ne">
	<polygon class="st0" points="1.6,262.2 -12,262.2 -8.1,266.1 -17.9,275.9 -12,281.8 -2.3,272 1.6,275.9 	"/>
</g>
<g id="ui-icon-arrowthick-1-e">
	<polygon class="st0" points="34.8,272 25.1,262.2 25.1,268.1 11.4,268.1 11.4,275.9 25.1,275.9 25.1,281.8 	"/>
</g>
<g id="ui-icon-arrowthick-1-se">
	<polygon class="st0" points="64.1,281.8 64.1,268.1 60.2,272 50.5,262.2 44.6,268.1 54.4,277.9 50.5,281.8 	"/>
</g>
<g id="ui-icon-arrowthick-1-s">
	<polygon class="st0" points="85.6,283.7 95.4,274 89.5,274 89.5,260.3 81.7,260.3 81.7,274 75.9,274 	"/>
</g>
<g id="ui-icon-arrowthick-1-sw">
	<polygon class="st0" points="107.1,281.8 107.1,268.1 111,272 120.8,262.2 126.6,268.1 116.9,277.9 120.8,281.8 	"/>
</g>
<g id="ui-icon-arrowthick-1-w">
	<polygon class="st0" points="136.4,272 146.2,281.8 146.2,275.9 159.8,275.9 159.8,268.1 146.2,268.1 146.2,262.2 	"/>
</g>
<g id="ui-icon-arrowthick-1-nw">
	<polygon class="st0" points="169.6,262.2 169.6,275.9 173.5,272 183.3,281.8 189.1,275.9 179.4,266.1 183.3,262.2 	"/>
</g>
<g id="ui-icon-arrowthick-2-n-s">
	<polygon class="st0" points="214.5,268.1 220.4,268.1 210.6,258.3 200.9,268.1 206.7,268.1 206.7,275.9 200.9,275.9 210.6,285.7 
		220.4,275.9 214.5,275.9 	"/>
</g>
<g id="ui-icon-arrowthick-2-ne-sw">
	<polygon class="st0" points="239.9,260.3 243.8,264.2 234.1,274 230.2,270 230.2,283.7 243.8,283.7 239.9,279.8 249.7,270 
		253.6,274 253.6,260.3 	"/>
</g>
<g id="ui-icon-arrowthick-2-e-w">
	<polygon class="st0" points="269.2,268.1 269.2,262.2 259.5,272 269.2,281.8 269.2,275.9 277,275.9 277,281.8 286.8,272 277,262.2 
		277,268.1 	"/>
</g>
<g id="ui-icon-arrowthick-2-se-nw">
	<polygon class="st0" points="292.7,274 296.6,270 306.3,279.8 302.4,283.7 316.1,283.7 316.1,270 312.2,274 302.4,264.2 
		306.3,260.3 292.7,260.3 	"/>
</g>
<g id="ui-icon-arrowthickstop-1-n">
	<rect x="327.8" y="260.3" class="st0" width="15.6" height="3.9"/>
	<polygon class="st0" points="335.6,266.1 325.9,275.9 331.7,275.9 331.7,283.7 339.5,283.7 339.5,275.9 345.4,275.9 	"/>
</g>
<g id="ui-icon-arrowthickstop-1-e">
	<rect x="374.7" y="264.2" class="st0" width="3.9" height="15.6"/>
	<polygon class="st0" points="372.7,272 363,262.2 363,268.1 355.2,268.1 355.2,275.9 363,275.9 363,281.8 	"/>
</g>
<g id="ui-icon-arrowthickstop-1-s">
	<rect x="390.3" y="279.8" class="st0" width="15.6" height="3.9"/>
	<polygon class="st0" points="398.1,277.9 407.9,268.1 402,268.1 402,260.3 394.2,260.3 394.2,268.1 388.4,268.1 	"/>
</g>
<g id="ui-icon-arrowthickstop-1-w">
	<rect x="417.7" y="264.2" class="st0" width="3.9" height="15.6"/>
	<polygon class="st0" points="423.5,272 433.3,281.8 433.3,275.9 441.1,275.9 441.1,268.1 433.3,268.1 433.3,262.2 	"/>
</g>
<g id="ui-icon-arrowreturnthick-1-w">
	<path class="st0" d="M-43.3,311.1c4.3,0,7.8-3.5,7.8-7.8s-3.5-7.8-7.8-7.8v3.9l-5.9-5.9l5.9-5.9v3.9c6.5,0,11.7,5.2,11.7,11.7
		S-36.8,315-43.3,315V311.1z"/>
</g>
<g id="ui-icon-arrowreturnthick-1-n">
	<path class="st0" d="M-15.9,299.3c0,5.9,3.5,7.8,7.8,7.8s7.8-2,7.8-7.8h-3.9l5.9-5.9l5.9,5.9H3.6c0,7.8-5.2,11.7-11.7,11.7
		s-11.7-3.9-11.7-11.7H-15.9z"/>
</g>
<g id="ui-icon-arrowreturnthick-1-e">
	<path class="st0" d="M27,295.4c-4.3,0-7.8,3.5-7.8,7.8s3.5,7.8,7.8,7.8v-3.9l5.9,5.9l-5.9,5.9V315c-6.5,0-11.7-5.2-11.7-11.7
		s5.2-11.7,11.7-11.7V295.4z"/>
</g>
<g id="ui-icon-arrowreturnthick-1-s">
	<path class="st0" d="M62.2,307.2c0-3.9-3.5-7.8-7.8-7.8s-7.8,3.9-7.8,7.8h3.9l-5.9,5.9l-5.9-5.9h3.9c0-5.9,5.2-11.7,11.7-11.7
		s11.7,5.9,11.7,11.7H62.2z"/>
</g>
<g id="ui-icon-arrowreturn-1-w">
	<path class="st0" d="M89.5,311.1c0-4.3-3.5-7.8-7.8-7.8v3.9l-5.9-5.9l5.9-5.9v3.9c6.5,0,11.7,5.2,11.7,11.7H89.5z"/>
</g>
<g id="ui-icon-arrowreturn-1-n">
	<path class="st0" d="M109.1,307.2c4.3,0,7.8-2,7.8-7.8H113l5.9-5.9l5.9,5.9h-3.9c0,7.8-5.2,11.7-11.7,11.7V307.2z"/>
</g>
<g id="ui-icon-arrowreturn-1-e">
	<path class="st0" d="M144.2,295.4c0,4.3,3.5,7.8,7.8,7.8v-3.9l5.9,5.9l-5.9,5.9v-3.9c-6.5,0-11.7-5.2-11.7-11.7H144.2z"/>
</g>
<g id="ui-icon-arrowreturn-1-s">
	<path class="st0" d="M187.2,299.3c-4.3,0-7.8,3.9-7.8,7.8h3.9l-5.9,5.9l-5.9-5.9h3.9c0-5.9,5.2-11.7,11.7-11.7V299.3z"/>
</g>
<g id="ui-icon-arrowrefresh-1-w">
	<path class="st0" d="M202.3,311.5l2.8-2.8c-1.4-1.4-2.3-3.4-2.3-5.5c0-4.3,3.5-7.8,7.8-7.8s7.8,3.5,7.8,7.8s-3.5,7.8-7.8,7.8v-3.9
		l-5.9,5.9l5.9,5.9V315c6.5,0,11.7-5.2,11.7-11.7s-5.2-11.7-11.7-11.7s-11.7,5.2-11.7,11.7C198.9,306.5,200.2,309.4,202.3,311.5z"/>
</g>
<g id="ui-icon-arrowrefresh-1-n">
	<path class="st0" d="M233.6,295l2.8,2.8c1.4-1.4,3.4-2.3,5.5-2.3c4.3,0,7.8,3.5,7.8,7.8s-3.5,7.8-7.8,7.8s-7.8-3.5-7.8-7.8h3.9
		l-5.9-5.9l-5.9,5.9h3.9c0,6.5,5.2,11.7,11.7,11.7s11.7-5.2,11.7-11.7s-5.2-11.7-11.7-11.7C238.6,291.5,235.7,292.8,233.6,295z"/>
</g>
<g id="ui-icon-arrowrefresh-1-e">
	<path class="st0" d="M281.4,295l-2.8,2.8c1.4,1.4,2.3,3.4,2.3,5.5c0,4.3-3.5,7.8-7.8,7.8s-7.8-3.5-7.8-7.8s3.5-7.8,7.8-7.8v3.9
		l5.9-5.9l-5.9-5.9v3.9c-6.5,0-11.7,5.2-11.7,11.7s5.2,11.7,11.7,11.7s11.7-5.2,11.7-11.7C284.8,300,283.5,297.1,281.4,295z"/>
</g>
<g id="ui-icon-arrowrefresh-1-s">
	<path class="st0" d="M312.7,311.5l-2.8-2.8c-1.4,1.4-3.4,2.3-5.5,2.3c-4.3,0-7.8-3.5-7.8-7.8s3.5-7.8,7.8-7.8s7.8,3.5,7.8,7.8h-3.9
		l5.9,5.9l5.9-5.9h-3.9c0-6.5-5.2-11.7-11.7-11.7s-11.7,5.2-11.7,11.7s5.2,11.7,11.7,11.7C307.6,315,310.5,313.7,312.7,311.5z"/>
</g>
<g id="ui-icon-arrow-4">
	<polygon class="st0" points="-47.2,332.5 -47.2,328.6 -53,334.5 -47.2,340.4 -47.2,336.5 -31.6,336.5 -31.6,340.4 -25.7,334.5 
		-31.6,328.6 -31.6,332.5 	"/>
	<polygon class="st0" points="-37.4,326.7 -33.5,326.7 -39.4,320.8 -45.2,326.7 -41.3,326.7 -41.3,342.3 -45.2,342.3 -39.4,348.2 
		-33.5,342.3 -37.4,342.3 	"/>
</g>
<g id="ui-icon-arrow-4-diag">
	<polygon class="st0" points="1.2,340.8 -14.5,325.2 -12,322.8 -19.8,322.8 -19.8,330.6 -17.4,328.2 -1.8,343.8 -4.2,346.2 
		3.6,346.2 3.6,338.4 	"/>
	<polygon class="st0" points="-4.2,322.8 -1.8,325.2 -17.4,340.8 -19.8,338.4 -19.8,346.2 -12,346.2 -14.5,343.8 1.2,328.2 
		3.6,330.6 3.6,322.8 	"/>
</g>
<g id="ui-icon-extlink">
	<polygon class="st0" points="27,342.3 13.4,342.3 13.4,332.5 17.3,332.5 21.2,328.6 11.4,328.6 11.4,344.3 29,344.3 29,336.5 
		27,338.4 	"/>
	<polygon class="st0" points="32.9,324.7 25.1,324.7 27.5,327.2 18.7,336 21.7,338.9 30.4,330.1 32.9,332.5 	"/>
</g>
<g id="ui-icon-newwin">
	<path class="st0" d="M66.1,338.4H48.5v-15.6h17.6V338.4z M64.1,326.7H50.5v9.8h13.7V326.7z"/>
	<polygon class="st0" points="58.3,342.3 44.6,342.3 44.6,332.5 46.6,332.5 46.6,328.6 42.7,328.6 42.7,344.3 60.2,344.3 
		60.2,340.4 58.3,340.4 	"/>
</g>
<g id="ui-icon-refresh">
	<path class="st0" d="M94.9,327.2c-2.1-2.7-5.5-4.4-9.3-4.4c-6.5,0-11.7,5.2-11.7,11.7h3.9c0-4.3,3.5-7.8,7.8-7.8
		c2.7,0,4.9,1.4,6.3,3.4l-2.4,2.4h7.8v-7.8L94.9,327.2z"/>
	<path class="st0" d="M93.4,334.5c0,4.3-3.5,7.8-7.8,7.8c-2.7,0-4.9-1.4-6.3-3.4l2.4-2.4h-7.8v7.8l2.4-2.4c2.1,2.7,5.5,4.4,9.3,4.4
		c6.5,0,11.7-5.2,11.7-11.7H93.4z"/>
</g>
<g id="ui-icon-shuffle">
	<path class="st0" d="M130.5,328.6l-5.9-5.9v3.9c-9.8,0-13.7,13.7-21.5,13.7v3.9c9.8,0,13.7-13.7,21.5-13.7v3.9L130.5,328.6z"/>
	<path class="st0" d="M130.5,342.3l-5.9-5.9v3.9c-7.8,0-11.7-13.7-21.5-13.7v3.9c7.8,0,11.7,13.7,21.5,13.7v3.9L130.5,342.3z"/>
</g>
<g id="ui-icon-transfer-e-w">
	<polygon class="st0" points="136.4,338.4 142.3,344.3 142.3,340.4 152,340.4 152,336.5 142.3,336.5 142.3,332.5 	"/>
	<polygon class="st0" points="159.8,330.6 154,324.7 154,328.6 144.2,328.6 144.2,332.5 154,332.5 154,336.5 	"/>
</g>
<g id="ui-icon-transferthick-e-w">
	<polygon class="st0" points="163.8,340.4 173.5,350.1 173.5,344.3 181.3,344.3 181.3,336.5 173.5,336.5 173.5,330.6 	"/>
	<polygon class="st0" points="195,328.6 185.2,318.9 185.2,324.7 177.4,324.7 177.4,332.5 185.2,332.5 185.2,338.4 	"/>
</g>
<g id="ui-icon-folder-collapsed">
	<path class="st0" d="M-27.7,354h-2v-2h-5.9l-2,2H-53v23.4h25.4V354z M-51.1,356h21.5v19.5h-21.5V356z"/>
	<rect x="-51.1" y="357.9" class="st0" width="21.5" height="2"/>
</g>
<g id="ui-icon-folder-open">
	<path class="st0" d="M1.6,359.9V354h-2v-2h-5.9l-2,2h-15.6v23.4H2.6l4.9-17.6H1.6z M-21.8,356h21.5v3.9h-17.6l-3.9,13.7V356z
		 M0.7,375.5h-20.5l3.9-13.7H4.6L0.7,375.5z"/>
</g>
<g id="ui-icon-document">
	<rect x="17.3" y="373.6" class="st0" width="11.7" height="2"/>
	<rect x="17.3" y="369.7" class="st0" width="11.7" height="2"/>
	<rect x="17.3" y="365.8" class="st0" width="11.7" height="2"/>
	<rect x="17.3" y="361.8" class="st0" width="11.7" height="2"/>
	<polygon class="st0" points="27,357.9 27,354 25.1,354 25.1,359.9 30.9,359.9 30.9,357.9 	"/>
	<path class="st0" d="M32.9,357.9v21.5H13.4v-27.3H27L32.9,357.9z M27,354H15.3v23.4h15.6v-19.5L27,354z"/>
</g>
<g id="ui-icon-document-b">
	<path class="st0" d="M58.3,377.5H44.6V354h19.5v17.6L58.3,377.5z M62.2,371.6V356H46.6v19.5h11.7L62.2,371.6z"/>
	<polygon class="st0" points="58.3,371.6 58.3,375.5 56.3,375.5 56.3,369.7 62.2,369.7 62.2,371.6 	"/>
</g>
<g id="ui-icon-note">
	<path class="st0" d="M95.4,352.1v25.4H79.8h-3.9v-2h3.9v-2h-3.9v-2h3.9v-2h-3.9v-2h3.9v-2h-3.9v-2h3.9v-2h-3.9v-2h3.9v-2h-3.9v-2
		h3.9v-2h-3.9v-2h3.9H95.4z M91.5,369.7h-7.8v2h7.8V369.7z M91.5,365.8h-7.8v2h7.8V365.8z"/>
</g>
<g id="ui-icon-mail-closed">
	<path class="st0" d="M103.2,356h27.3v19.5h-27.3V356z M116.9,367.7c-1.7,0-2.4-1-2.4-1l-6.8,6.8h18.6l-6.8-6.8
		C119.3,366.7,118.6,367.7,116.9,367.7z M105.2,373.6l7.8-7.8l-7.8-7.8V373.6z M128.6,373.6v-15.6l-7.8,7.8L128.6,373.6z
		 M119.3,364.8l6.8-6.8h-18.6l6.8,6.8c0,0,1.6,1,2.4,1S119.3,364.8,119.3,364.8z"/>
</g>
<g id="ui-icon-mail-open">
	<path class="st0" d="M161.8,357v18.6h-27.3V357c0,0,9.8-6.8,13.7-6.8S161.8,357,161.8,357z M148.1,367.7c-1.7,0-2.4-1-2.4-1
		l-6.8,6.8h18.6l-6.8-6.8C150.6,366.7,149.8,367.7,148.1,367.7z M144.2,365.8l-7.8-7.8v15.6L144.2,365.8z M152,365.8l7.8,7.8v-15.6
		L152,365.8z M148.1,352.1c-2,0-3.1,0.7-3.1,0.7l-8.6,5.1h23.4l-8.6-5.1C151.2,352.8,150.1,352.1,148.1,352.1z"/>
</g>
<g id="ui-icon-suitcase">
	<rect x="167.7" y="357.9" class="st0" width="5.9" height="17.6"/>
	<rect x="175.5" y="357.9" class="st0" width="7.8" height="17.6"/>
	<rect x="185.2" y="357.9" class="st0" width="5.9" height="17.6"/>
	<path class="st0" d="M177.4,357.9c0-2.2-0.2-3.9,2-3.9s2,1.8,2,3.9h3.9c0-3.2-2.6-5.9-5.9-5.9s-5.9,2.6-5.9,5.9H177.4z"/>
</g>
<g id="ui-icon-comment">
	<polygon class="st0" points="224.3,356 197,356 197,373.6 212.6,373.6 220.4,381.4 220.4,373.6 224.3,373.6 	"/>
</g>
<g id="ui-icon-person">
	<path class="st0" d="M236,361.8v-3.9c0-5.9,5.9-5.9,5.9-5.9s5.9,0,5.9,5.9v3.9c0,5.9-5.9,5.9-5.9,5.9S236,367.7,236,361.8z
		 M239.9,357.9h-2v2h2V357.9z M245.8,357.9h-2v2h2V357.9z"/>
	<path class="st0" d="M247.7,375.5v3.9h3.9v-3.9c0-5.9-1-7.8-9.8-7.8s-9.8,2-9.8,7.8v3.9h3.9v-3.9l2,2v2h7.8v-2L247.7,375.5z"/>
</g>
<g id="ui-icon-print">
	<path class="st0" d="M284.8,369.7v5.9l-2,3.9h-19.5l-2-3.9v-5.9h2V354h19.5v15.6H284.8z M282.9,371.6H279v2h3.9V371.6z M280.9,356
		h-15.6v13.7h15.6V356z"/>
	<rect x="267.3" y="357.9" class="st0" width="11.7" height="2"/>
	<rect x="267.3" y="361.8" class="st0" width="11.7" height="2"/>
	<rect x="267.3" y="365.8" class="st0" width="11.7" height="2"/>
</g>
<g id="ui-icon-trash">
	<polygon class="st0" points="312.2,357.9 312.2,377.5 310.2,377.5 310.2,357.9 308.3,357.9 308.3,377.5 306.3,377.5 306.3,357.9 
		304.4,357.9 304.4,377.5 302.4,377.5 302.4,357.9 300.5,357.9 300.5,377.5 298.5,377.5 298.5,357.9 294.6,357.9 294.6,379.4 
		314.1,379.4 314.1,357.9 	"/>
	<path class="st0" d="M314.1,354h-5.9c0-2.2-1.8-3.9-3.9-3.9s-3.9,1.8-3.9,3.9h-5.9c-2,0-2,3.9-2,3.9h23.4
		C316.1,357.9,316.1,354,314.1,354z M304.4,352.1c1.1,0,2,0.9,2,2h-3.9C302.4,353,303.3,352.1,304.4,352.1z"/>
</g>
<g id="ui-icon-locked">
	<rect x="325.9" y="363.8" class="st0" width="19.5" height="15.6"/>
	<path class="st0" d="M341.5,357.9c0-3.2-2.6-5.9-5.9-5.9s-5.9,2.6-5.9,5.9v5.9h3.9v-5.9c0-1.1,0.9-2,2-2s2,0.9,2,2v5.9h3.9V357.9z"
		/>
</g>
<g id="ui-icon-unlocked">
	<rect x="357.1" y="363.8" class="st0" width="19.5" height="15.6"/>
	<path class="st0" d="M380.5,357.9c0-3.2-2.6-5.9-5.9-5.9s-5.9,2.6-5.9,5.9v5.9h3.9v-5.9c0-1.1,0.9-2,2-2s2,0.9,2,2v5.9h3.9V357.9z"
		/>
</g>
<g id="ui-icon-bookmark">
	<polygon class="st0" points="405.9,379.4 398.1,371.6 390.3,379.4 390.3,354 405.9,354 	"/>
</g>
<g id="ui-icon-tag">
	<path class="st0" d="M427.4,379.4l-11.7-11.7l13.7-13.7h11.7v11.7L427.4,379.4z M437.2,357.9h2v-2h-2V357.9z M419.6,367.7l7.8,7.8
		l7.8-7.8l-7.8-7.8L419.6,367.7z"/>
</g>
<g id="ui-icon-home">
	<path class="st0" d="M-29.6,408.7h-19.5V397l9.8-9.8l9.8,9.8V408.7z M-37.4,399h-3.9v7.8h3.9V399z"/>
	<polygon class="st0" points="-39.4,385.3 -51.1,397 -53,397 -39.4,383.3 -25.7,397 -27.7,397 	"/>
</g>
<g id="ui-icon-flag">
	<path class="st0" d="M1.6,400.9v-11.7c-5.9,2-7.8-2-13.7-2V399C-6.2,399-4.2,402.9,1.6,400.9z"/>
	<path class="st0" d="M-15.9,385.3c-1.1,0-2,0.9-2,2v19.5h3.9v-19.5C-14,386.2-14.9,385.3-15.9,385.3z"/>
</g>
<g id="ui-icon-calendar">
	<rect x="15.3" y="385.3" class="st0" width="5.9" height="2"/>
	<rect x="25.1" y="385.3" class="st0" width="5.9" height="2"/>
	<path class="st0" d="M34.8,408.7H11.4v-21.5h23.4V408.7z M13.4,406.8h19.5v-15.6H13.4V406.8z"/>
	<polygon class="st0" points="21.2,393.1 19.2,397 21.2,397 21.2,404.8 25.1,404.8 25.1,393.1 	"/>
</g>
<g id="ui-icon-cart">
	<circle class="st0" cx="49.5" cy="405.8" r="2.9"/>
	<circle class="st0" cx="61.2" cy="405.8" r="2.9"/>
	<path class="st0" d="M42.7,387.2h-2v2h2c1.1,0,2,0.9,2,2h2C46.6,389,44.8,387.2,42.7,387.2z"/>
	<path class="st0" d="M64.1,402.9H46.6l-2-11.7v-2h21.5v2L64.1,402.9z M46.6,391.1l2,9.8h13.7l2-9.8H46.6z"/>
</g>
<g id="ui-icon-pencil">
	<polygon class="st0" points="77.8,408.7 72,410.7 73.9,404.8 89.5,389.2 93.4,393.1 	"/>
	<polygon class="st0" points="91.5,387.2 95.4,383.3 99.3,387.2 95.4,391.1 	"/>
</g>
<g id="ui-icon-clock">
	<polygon class="st0" points="114.9,397 114.9,389.2 118.8,389.2 118.8,399 111,401.9 110,399 	"/>
	<path class="st0" d="M103.2,397c0-7.6,6.1-13.7,13.7-13.7s13.7,6.1,13.7,13.7s-6.1,13.7-13.7,13.7S103.2,404.6,103.2,397z
		 M116.9,406.8c5.4,0,9.8-4.4,9.8-9.8s-4.4-9.8-9.8-9.8s-9.8,4.4-9.8,9.8S111.5,406.8,116.9,406.8z"/>
</g>
<g id="ui-icon-disk">
	<path class="st0" d="M159.8,406.8l-2,2h-21.5v-23.4h23.4V406.8z M142.3,399v7.8h2v-3.9h3.9v3.9h5.9V399H142.3z M155.9,387.2h-15.6
		v9.8h15.6V387.2z"/>
	<rect x="142.3" y="389.2" class="st0" width="11.7" height="2"/>
	<rect x="142.3" y="393.1" class="st0" width="11.7" height="2"/>
</g>
<g id="ui-icon-calculator">
	<path class="st0" d="M189.1,408.7h-19.5v-23.4h19.5V408.7z M187.2,387.2h-15.6v5.9h15.6V387.2z M173.5,397h-2v2h2V397z
		 M173.5,400.9h-2v2h2V400.9z M173.5,404.8h-2v2h2V404.8z M177.4,397h-2v2h2V397z M177.4,400.9h-2v2h2V400.9z M177.4,404.8h-2v2h2
		V404.8z M181.3,397h-2v2h2V397z M181.3,400.9h-2v2h2V400.9z M181.3,404.8h-2v2h2V404.8z M187.2,397h-3.9v2h3.9V397z M187.2,400.9
		h-3.9v2h3.9V400.9z M187.2,404.8h-3.9v2h3.9V404.8z"/>
</g>
<g id="ui-icon-zoomin">
	<path class="st0" d="M195,393.1c0-6.5,5.2-11.7,11.7-11.7c6.5,0,11.7,5.2,11.7,11.7s-5.3,11.7-11.7,11.7
		C200.2,404.8,195,399.6,195,393.1z M206.7,400.9c4.3,0,7.8-3.5,7.8-7.8s-3.5-7.8-7.8-7.8s-7.8,3.5-7.8,7.8S202.4,400.9,206.7,400.9
		z"/>
	<path class="st0" d="M212.6,400.9l2-2l5.9,3.9l5.9,5.9c0,0,0,2-1,2.9s-2.9,1-2.9,1l-5.9-5.9L212.6,400.9z"/>
	<rect x="200.9" y="391.1" class="st0" width="11.7" height="3.9"/>
	<rect x="204.8" y="387.2" class="st0" width="3.9" height="11.7"/>
</g>
<g id="ui-icon-zoomout">
	<path class="st0" d="M226.3,393.1c0-6.5,5.2-11.7,11.7-11.7c6.5,0,11.7,5.2,11.7,11.7s-5.3,11.7-11.7,11.7
		C231.5,404.8,226.3,399.6,226.3,393.1z M238,400.9c4.3,0,7.8-3.5,7.8-7.8s-3.5-7.8-7.8-7.8s-7.8,3.5-7.8,7.8S233.7,400.9,238,400.9
		z"/>
	<path class="st0" d="M243.8,400.9l2-2l5.9,3.9l5.9,5.9c0,0,0,2-1,2.9s-2.9,1-2.9,1l-5.9-5.9L243.8,400.9z"/>
	<rect x="232.1" y="391.1" class="st0" width="11.7" height="3.9"/>
</g>
<g id="ui-icon-search">
	<path class="st0" d="M257.5,393.1c0-6.5,5.2-11.7,11.7-11.7c6.5,0,11.7,5.2,11.7,11.7s-5.3,11.7-11.7,11.7
		C262.7,404.8,257.5,399.6,257.5,393.1z M269.2,400.9c4.3,0,7.8-3.5,7.8-7.8s-3.5-7.8-7.8-7.8s-7.8,3.5-7.8,7.8
		S264.9,400.9,269.2,400.9z"/>
	<path class="st0" d="M275.1,400.9l2-2l5.9,3.9l5.9,5.9c0,0,0,2-1,2.9s-2.9,1-2.9,1l-5.9-5.9L275.1,400.9z"/>
</g>
<g id="ui-icon-wrench">
	<path class="st0" d="M313.2,393.1c-2.7,0-4.9-2.2-4.9-4.9c0-2.3,1.5-4.1,3.6-4.7c-0.5-0.1-1.1-0.2-1.7-0.2c-4.3,0-7.8,3.5-7.8,7.8
		s3.5,7.8,7.8,7.8s7.8-3.5,7.8-7.8c0-0.6-0.1-1.1-0.2-1.7C317.3,391.6,315.4,393.1,313.2,393.1z"/>
	<path class="st0" d="M309.1,397.8l-11.7,11.7c-1.5,1.5-4,1.5-5.5,0c-1.5-1.5-1.5-4,0-5.5l11.7-11.7L309.1,397.8z M294.6,408.7
		c1.1,0,2-0.9,2-2s-0.9-2-2-2s-2,0.9-2,2S293.5,408.7,294.6,408.7z"/>
</g>
<g id="ui-icon-gear">
	<path class="st0" d="M348.3,395c0.2,1.4,0.2,2.6,0,3.9c-1.4-0.4-3.1,0.3-3.7,1.7c-0.6,1.4-0.1,2.9,1.2,3.7
		c-0.8,1.1-1.8,2.1-2.9,2.9c-0.7-1.3-2.3-1.8-3.7-1.2c-1.4,0.6-2.1,2.3-1.7,3.7c-1.4,0.2-2.6,0.2-3.9,0c0.4-1.4-0.3-3.1-1.7-3.7
		c-1.4-0.6-2.9-0.1-3.7,1.2c-1.1-0.8-2.1-1.8-2.9-2.9c1.3-0.7,1.8-2.3,1.2-3.7c-0.6-1.4-2.3-2.1-3.7-1.7c-0.2-1.4-0.2-2.6,0-3.9
		c1.4,0.4,3.1-0.3,3.7-1.7s0.1-2.9-1.2-3.7c0.8-1.1,1.8-2.1,2.9-2.9c0.7,1.3,2.3,1.8,3.7,1.2c1.4-0.6,2.1-2.1,1.7-3.5
		c1.4-0.2,2.6-0.2,3.9,0c-0.4,1.4,0.3,2.9,1.7,3.5c1.4,0.6,2.9,0.1,3.7-1.2c1.1,0.8,2.1,1.8,2.9,2.9c-1.3,0.7-1.8,2.3-1.2,3.7
		C345.2,394.7,346.9,395.4,348.3,395z M335.6,402.9c3.2,0,5.9-2.6,5.9-5.9c0-3.2-2.6-5.9-5.9-5.9s-5.9,2.6-5.9,5.9
		C329.8,400.2,332.4,402.9,335.6,402.9z"/>
</g>
<g id="ui-icon-heart">
	<path class="st0" d="M371.8,385.3c4.9-1,9.7,4.2,6.8,10.7c-3.9,8.8-11.7,12.7-11.7,12.7s-7.8-3.9-11.7-12.7
		c-2.9-6.5,2-11.7,6.8-10.7c3.9,0.8,4.9,3.9,4.9,3.9S367.8,386.1,371.8,385.3z"/>
</g>
<g id="ui-icon-star">
	<polygon class="st0" points="398.1,383.3 401.1,393.1 411.8,393.1 403,399 406.9,409.7 398.1,402.3 389.3,409.7 393.2,399 
		384.5,393.1 395.2,393.1 	"/>
</g>
<g id="ui-icon-link">
	<rect x="427.4" y="381.4" class="st0" width="3.9" height="9.8"/>
	<rect x="427.4" y="402.9" class="st0" width="3.9" height="9.8"/>
	<rect x="413.8" y="395" class="st0" width="9.8" height="3.9"/>
	<rect x="435.2" y="395" class="st0" width="9.8" height="3.9"/>
	<path class="st0" d="M415.7,397c0-7.5,6.1-13.7,13.7-13.7S443,389.5,443,397c0,7.6-6.1,13.7-13.7,13.7S415.7,404.6,415.7,397z
		 M429.4,406.8c5.4,0,9.8-4.4,9.8-9.8c0-5.4-4.4-9.8-9.8-9.8s-9.8,4.4-9.8,9.8C419.6,402.4,424,406.8,429.4,406.8z"/>
</g>
<g id="ui-icon-cancel">
	
		<rect x="-41.4" y="416.5" transform="matrix(-0.7071 -0.7071 0.7071 -0.7071 -370.0338 703.2231)" class="st0" width="4.1" height="23.5"/>
	<path class="st0" d="M-53,428.3c0-7.6,6.1-13.7,13.7-13.7s13.7,6.1,13.7,13.7s-6.1,13.7-13.7,13.7S-53,435.8-53,428.3z M-39.4,438
		c5.4,0,9.8-4.4,9.8-9.8s-4.4-9.8-9.8-9.8s-9.8,4.4-9.8,9.8S-44.8,438-39.4,438z"/>
</g>
<g id="ui-icon-plus">
	<path class="st0" d="M-21.8,428.3c0-7.6,6.1-13.7,13.7-13.7s13.7,6.1,13.7,13.7s-6.1,13.7-13.7,13.7S-21.8,435.8-21.8,428.3z
		 M1.6,426.3h-7.8v-7.8h-3.9v7.8h-7.8v3.9h7.8v7.8h3.9v-7.8h7.8V426.3z"/>
</g>
<g id="ui-icon-plusthick">
	<rect x="11.4" y="424.3" class="st0" width="23.4" height="7.8"/>
	<rect x="19.2" y="416.5" class="st0" width="7.8" height="23.4"/>
</g>
<g id="ui-icon-minus">
	<path class="st0" d="M40.7,428.3c0-7.6,6.1-13.7,13.7-13.7S68,420.7,68,428.3s-6.1,13.7-13.7,13.7S40.7,435.8,40.7,428.3z
		 M64.1,426.3H44.6v3.9h19.5V426.3z"/>
</g>
<g id="ui-icon-minusthick">
	<rect x="73.9" y="424.3" class="st0" width="23.4" height="7.8"/>
</g>
<g id="ui-icon-close">
	<path class="st0" d="M103.2,428.3c0-7.6,6.1-13.7,13.7-13.7s13.7,6.1,13.7,13.7s-6.1,13.7-13.7,13.7S103.2,435.8,103.2,428.3z
		 M125.7,422.4l-2.9-2.9l-5.9,5.9l-5.9-5.9l-2.9,2.9l5.9,5.9l-5.9,5.9l2.9,2.9l5.9-5.9l5.9,5.9l2.9-2.9l-5.9-5.9L125.7,422.4z"/>
</g>
<g id="ui-icon-closethick">
	<polygon class="st0" points="159.8,420.4 155.9,416.5 148.1,424.3 140.3,416.5 136.4,420.4 144.2,428.3 136.4,436.1 140.3,440 
		148.1,432.2 155.9,440 159.8,436.1 152,428.3 	"/>
</g>
<g id="ui-icon-key">
	<rect x="177.4" y="426.3" class="st0" width="15.6" height="3.9"/>
	<rect x="187.2" y="430.2" class="st0" width="3.9" height="3.9"/>
	<path class="st0" d="M179.4,428.3c0,4.3-3.1,7.8-6.8,7.8s-6.8-3.5-6.8-7.8s3.1-7.8,6.8-7.8S179.4,423.9,179.4,428.3z M172.5,433.1
		c2.2,0,3.9-2.2,3.9-4.9s-1.8-4.9-3.9-4.9s-3.9,2.2-3.9,4.9S170.4,433.1,172.5,433.1z"/>
</g>
<g id="ui-icon-lightbulb">
	<path class="st0" d="M220.4,422.4c0,5.4-4.4,9.8-9.8,9.8s-9.8-4.4-9.8-9.8s4.4-9.8,9.8-9.8S220.4,417,220.4,422.4z M210.6,429.2
		c3.8,0,6.8-3.1,6.8-6.8s-3.1-6.8-6.8-6.8s-6.8,3.1-6.8,6.8S206.8,429.2,210.6,429.2z"/>
	<polygon class="st0" points="210.6,443.9 208.7,441.9 212.6,441.9 	"/>
	<path class="st0" d="M214.5,441.9h-7.8v-11.7h7.8V441.9z M212.6,434.1h-3.9v2h3.9V434.1z M212.6,438h-3.9v2h3.9V438z"/>
</g>
<g id="ui-icon-scissors">
	<path class="st0" d="M236,433.1c0,2.7-0.7,4.9-3.9,4.9s-5.9-2.2-5.9-4.9s2.6-4.9,5.9-4.9c-3.2,0-5.9-2.2-5.9-4.9s2.6-4.9,5.9-4.9
		s3.9,2.2,3.9,4.9v2.4c2,0,7.8-4.9,13.7-4.9s7.8,2.4,7.8,2.4s-5.9,0-9.8,2.4c-3.5,2.2-5.9,2.4-5.9,2.4s2.4,0.3,5.9,2.4
		c3.9,2.4,9.8,2.4,9.8,2.4s-2,2.4-7.8,2.4s-11.7-4.9-13.7-4.9V433.1z M232.1,425.8c2.2,0,2-1.1,2-2.4s0.2-2.4-2-2.4
		s-3.9,1.1-3.9,2.4S230,425.8,232.1,425.8z M232.1,435.6c2.2,0,2-1.1,2-2.4s0.2-2.4-2-2.4s-3.9,1.1-3.9,2.4S230,435.6,232.1,435.6z"
		/>
</g>
<g id="ui-icon-clipboard">
	<path class="st0" d="M282.9,418.5v23.4h-19.5v-23.4h3.9l2-3.9h7.8l2,3.9H282.9z M277,440c3.9,0,3.9-2,3.9-2v-15.6h-15.6V438
		c0,0,0,2,3.9,2H277z M275.1,416.5h-3.9v2h3.9V416.5z"/>
	<rect x="267.3" y="426.3" class="st0" width="11.7" height="2"/>
	<rect x="267.3" y="430.2" class="st0" width="11.7" height="2"/>
	<rect x="267.3" y="434.1" class="st0" width="11.7" height="2"/>
</g>
<g id="ui-icon-copy">
	<polygon class="st0" points="304.4,434.1 304.4,438 318,438 318,418.5 304.4,418.5 304.4,422.4 302.4,422.4 302.4,416.5 320,416.5 
		320,440 302.4,440 302.4,434.1 	"/>
	<polygon class="st0" points="300.5,418.5 300.5,416.5 288.8,416.5 288.8,440 300.5,440 300.5,438 290.7,438 290.7,418.5 	"/>
	<polygon class="st0" points="314.1,428.3 308.3,422.4 308.3,426.3 296.6,426.3 296.6,430.2 308.3,430.2 308.3,434.1 	"/>
</g>
<g id="ui-icon-contact">
	<path class="st0" d="M337.6,436.1v-0.8c-0.9,0.5-1.9,0.8-2.9,0.8c-3.8,0-6.8-3.5-6.8-7.8s3.1-7.8,6.8-7.8c1.1,0,2,0.3,2.9,0.8v-0.7
		v-0.1h3.9v13.7h4.3c1-1.7,1.6-3.7,1.6-5.9c0-6.5-5.2-11.7-11.7-11.7s-11.7,5.2-11.7,11.7s5.2,11.7,11.7,11.7c2.1,0,4.1-0.6,5.9-1.6
		v2.2c-1.8,0.8-3.8,1.3-5.9,1.3c-7.6,0-13.7-6.1-13.7-13.7s6.1-13.7,13.7-13.7s13.7,6.1,13.7,13.7c0,2.9-0.9,5.6-2.5,7.8H337.6z
		 M337.6,424.9c-0.6-0.3-1.2-0.5-2-0.5c-2.2,0-3.9,1.8-3.9,3.9s1.8,3.9,3.9,3.9c0.7,0,1.4-0.2,2-0.5V424.9z"/>
</g>
<g id="ui-icon-image">
	<path class="st0" d="M351.3,440v-23.4h31.3V440H351.3z M380.5,418.5h-27.3V438h27.3V418.5z"/>
	<polygon class="st0" points="355.2,436.1 361,430.2 363,432.2 370.8,424.3 378.6,432.2 378.6,436.1 	"/>
	<circle class="st0" cx="359.1" cy="424.3" r="3.9"/>
</g>
<g id="ui-icon-video">
	<path class="st0" d="M407.9,440h-19.5v-25.4h19.5V440z M392.3,416.5h-2v2h2V416.5z M392.3,420.4h-2v2h2V420.4z M392.3,424.3h-2v2h2
		V424.3z M392.3,428.3h-2v2h2V428.3z M392.3,432.2h-2v2h2V432.2z M392.3,436.1h-2v2h2V436.1z M405.9,436.1h-2v2h2V436.1z
		 M405.9,432.2h-2v2h2V432.2z M405.9,428.3h-2v2h2V428.3z M405.9,424.3h-2v2h2V424.3z M405.9,420.4h-2v2h2V420.4z M405.9,416.5h-2v2
		h2V416.5z M402,416.5h-7.8v9.8h7.8V416.5z M402,428.3h-7.8v9.8h7.8V428.3z"/>
</g>
<g id="ui-icon-script">
	<path class="st0" d="M421.6,416.5h13.7c3.9,0,3.9,5.9,2,11.7c-0.5,1.4-0.9,2.8-1.3,4.1c0.8,0.5,1.3,2,1.3,3.7c0,1.6-0.5,3-1.2,3.6
		l-0.7,0.3h-13.7c-3.9,0-2-5.9,0-11.7c0.5-1.6,0.9-3.1,1.1-4.6c-0.3,0.4-0.7,0.7-1.1,0.7c-1.1,0-2-1.8-2-3.9c0-1.7,0.5-3.1,1.3-3.6
		L421.6,416.5z M433.3,438c0,0,0-3.9,2-9.8c2.5-7.6,0-9.8,0-9.8h-11.7c0,0,2.5,2.1,0,9.8c-2,5.9-2,9.8-2,9.8H433.3z"/>
</g>
<g id="ui-icon-alert">
	<path class="st0" d="M-55,473.2l15.6-27.3l15.6,27.3H-55z M-37.4,453.6h-3.9v11.7h3.9V453.6z M-37.4,467.3h-3.9v3.9h3.9V467.3z"/>
</g>
<g id="ui-icon-info">
	<path class="st0" d="M-21.8,459.5c0-7.6,6.1-13.7,13.7-13.7s13.7,6.1,13.7,13.7s-6.1,13.7-13.7,13.7S-21.8,467.1-21.8,459.5z
		 M-6.2,455.6h-3.9v13.7h3.9V455.6z M-6.2,449.7h-3.9v3.9h3.9V449.7z"/>
</g>
<g id="ui-icon-notice">
	<path class="st0" d="M7.5,459.5c0-2,5.9-11.7,15.6-11.7s15.6,9.8,15.6,11.7s-5.9,11.7-15.6,11.7S7.5,461.5,7.5,459.5z M23.1,467.3
		c4.3,0,7.8-3.5,7.8-7.8s-3.5-7.8-7.8-7.8s-7.8,3.5-7.8,7.8S18.8,467.3,23.1,467.3z"/>
	<circle class="st0" cx="23.1" cy="459.5" r="3.9"/>
</g>
<g id="ui-icon-help">
	<path class="st0" d="M68,459.5c0,7.6-6.1,13.7-13.7,13.7s-13.7-6.1-13.7-13.7s6.1-13.7,13.7-13.7S68,451.9,68,459.5z M52.4,469.3
		h3.9v-3.9h-3.9V469.3z M60.2,455.6c0-3.2-2.6-5.9-5.9-5.9s-5.9,2.6-5.9,5.9h3.9c0-1.1,0.9-2,2-2s2,0.9,2,2s-0.9,2-2,2s-2,0.9-2,2
		v3.9h3.9v-2.3C58.6,460.3,60.2,458.1,60.2,455.6z"/>
</g>
<g id="ui-icon-check">
	<polygon class="st0" points="95.4,447.8 79.8,463.4 75.9,459.5 72,463.4 79.8,471.2 99.3,451.7 	"/>
</g>
<g id="ui-icon-bullet">
	<circle class="st0" cx="116.9" cy="459.5" r="9.8"/>
</g>
<g id="ui-icon-radio-on">
	<path class="st0" d="M157.9,459.5c0,5.4-4.4,9.8-9.8,9.8s-9.8-4.4-9.8-9.8s4.4-9.8,9.8-9.8S157.9,454.1,157.9,459.5z M148.1,463.4
		c2.2,0,3.9-1.8,3.9-3.9s-1.8-3.9-3.9-3.9s-3.9,1.8-3.9,3.9S146,463.4,148.1,463.4z"/>
</g>
<g id="ui-icon-radio-off">
	<path class="st0" d="M189.1,459.5c0,5.4-4.4,9.8-9.8,9.8s-9.8-4.4-9.8-9.8s4.4-9.8,9.8-9.8S189.1,454.1,189.1,459.5z M179.4,466.3
		c3.8,0,6.8-3.1,6.8-6.8s-3.1-6.8-6.8-6.8s-6.8,3.1-6.8,6.8S175.6,466.3,179.4,466.3z"/>
</g>
<g id="ui-icon-pin-w">
	<polygon class="st0" points="197,459.5 204.8,457.5 204.8,461.5 	"/>
	<path class="st0" d="M204.8,467.3v-15.6h2l7.8,2l3.9-2h2v15.6h-2l-3.9-2l-7.8,2H204.8z M208.7,465.4l3.9-2v-7.8l-3.9-2V465.4z"/>
</g>
<g id="ui-icon-pin-s">
	<polygon class="st0" points="241.9,473.2 239.9,465.4 243.8,465.4 	"/>
	<path class="st0" d="M249.7,465.4h-15.6v-2l2-7.8l-2-3.9v-2h15.6v2l-2,3.9l2,7.8V465.4z M247.7,461.5l-2-3.9H238l-2,3.9H247.7z"/>
</g>
<g id="ui-icon-play">
	<polygon class="st0" points="-47.2,500.5 -47.2,481 -29.6,490.8 	"/>
</g>
<g id="ui-icon-pause">
	<rect x="-15.9" y="482.9" class="st0" width="5.9" height="15.6"/>
	<rect x="-6.2" y="482.9" class="st0" width="5.9" height="15.6"/>
</g>
<g id="ui-icon-seek-next">
	<polygon class="st0" points="11.4,496.6 11.4,484.9 23.1,490.8 	"/>
	<polygon class="st0" points="25.1,496.6 25.1,484.9 36.8,490.8 	"/>
</g>
<g id="ui-icon-seek-prev">
	<polygon class="st0" points="66.1,496.6 66.1,484.9 54.4,490.8 	"/>
	<polygon class="st0" points="52.4,496.6 52.4,484.9 40.7,490.8 	"/>
</g>
<g id="ui-icon-seek-end">
	<polygon class="st0" points="75.9,496.6 75.9,484.9 87.6,490.8 	"/>
	<rect x="91.5" y="484.9" class="st0" width="3.9" height="11.7"/>
</g>
<g id="ui-icon-seek-start">
	<polygon class="st0" points="126.6,496.6 126.6,484.9 114.9,490.8 	"/>
	<rect x="107.1" y="484.9" class="st0" width="3.9" height="11.7"/>
</g>
<g id="ui-icon-stop">
	<rect x="140.3" y="482.9" class="st0" width="15.6" height="15.6"/>
</g>
<g id="ui-icon-eject">
	<rect x="171.6" y="494.7" class="st0" width="15.6" height="3.9"/>
	<polygon class="st0" points="187.2,492.7 171.6,492.7 179.4,482.9 	"/>
</g>
<g id="ui-icon-volume-off">
	<polygon class="st0" points="208.7,486.8 202.8,486.8 202.8,494.7 208.7,494.7 214.5,500.5 214.5,481 	"/>
</g>
<g id="ui-icon-volume-on">
	<path class="st0" d="M247.7,492.7c1.1,0,2-0.9,2-2s-0.9-2-2-2V492.7z"/>
	<path class="st0" d="M250.8,485.8l-1.4,1.4c1.4,0.6,2.3,2,2.3,3.6c0,1.6-0.9,2.9-2.3,3.6l1.4,1.4c1.7-1,2.8-2.9,2.8-5
		S252.5,486.8,250.8,485.8z"/>
	<path class="st0" d="M253.6,483l-1.4,1.4c2,1.4,3.4,3.8,3.4,6.4s-1.3,5-3.4,6.4l1.4,1.4c2.4-1.8,3.9-4.6,3.9-7.8
		S255.9,484.7,253.6,483z"/>
	<polygon class="st0" points="239.9,486.8 234.1,486.8 234.1,494.7 239.9,494.7 245.8,500.5 245.8,481 	"/>
</g>
<g id="ui-icon-power">
	<rect x="-41.3" y="508.3" class="st0" width="3.9" height="9.8"/>
	<path class="st0" d="M-35.5,512.7v4.4c2.3,1.4,3.9,4,3.9,6.8c0,4.3-3.5,7.8-7.8,7.8s-7.8-3.5-7.8-7.8c0-2.9,1.6-5.5,3.9-6.8v-4.4
		c-4.5,1.6-7.8,6.1-7.8,11.2c0,6.5,5.2,11.7,11.7,11.7s11.7-5.2,11.7-11.7C-27.7,518.9-30.9,514.3-35.5,512.7z"/>
</g>
<g id="ui-icon-signal-diag">
	<path class="st0" d="M-2.3,531.8c0-8.6-7-15.6-15.6-15.6v-3.9c10.8,0,19.5,8.7,19.5,19.5H-2.3z"/>
	<path class="st0" d="M-17.9,524c4.3,0,7.8,3.5,7.8,7.8h3.9c0-6.5-5.2-11.7-11.7-11.7V524z"/>
	<path class="st0" d="M-14,531.8c0-2.2-1.8-3.9-3.9-3.9v3.9H-14z"/>
</g>
<g id="ui-icon-signal">
	<rect x="32.9" y="512.2" class="st0" width="3.9" height="19.5"/>
	<rect x="25.1" y="518.1" class="st0" width="3.9" height="13.7"/>
	<rect x="17.3" y="524" class="st0" width="3.9" height="7.8"/>
	<rect x="9.5" y="529.8" class="st0" width="3.9" height="2"/>
</g>
<g id="ui-icon-battery-0">
	<rect x="64.1" y="518.1" class="st0" width="3.9" height="7.8"/>
	<path class="st0" d="M42.7,514.2h23.4v15.6H42.7V514.2z M44.6,527.9h19.5v-11.7H44.6V527.9z"/>
</g>
<g id="ui-icon-battery-1">
	<rect x="95.4" y="518.1" class="st0" width="3.9" height="7.8"/>
	<rect x="77.8" y="518.1" class="st0" width="3.9" height="7.8"/>
	<path class="st0" d="M73.9,514.2h23.4v15.6H73.9V514.2z M75.9,527.9h19.5v-11.7H75.9V527.9z"/>
</g>
<g id="ui-icon-battery-2">
	<rect x="126.6" y="518.1" class="st0" width="3.9" height="7.8"/>
	<rect x="114.9" y="518.1" class="st0" width="3.9" height="7.8"/>
	<rect x="109.1" y="518.1" class="st0" width="3.9" height="7.8"/>
	<path class="st0" d="M105.2,514.2h23.4v15.6h-23.4V514.2z M107.1,527.9h19.5v-11.7h-19.5V527.9z"/>
</g>
<g id="ui-icon-battery-3">
	<rect x="152" y="518.1" class="st0" width="3.9" height="7.8"/>
	<rect x="157.9" y="518.1" class="st0" width="3.9" height="7.8"/>
	<rect x="146.2" y="518.1" class="st0" width="3.9" height="7.8"/>
	<rect x="140.3" y="518.1" class="st0" width="3.9" height="7.8"/>
	<path class="st0" d="M136.4,514.2h23.4v15.6h-23.4V514.2z M138.4,527.9h19.5v-11.7h-19.5V527.9z"/>
</g>
<g id="ui-icon-circle-plus">
	<path class="st0" d="M-51.1,553.3c0-6.5,5.2-11.7,11.7-11.7s11.7,5.2,11.7,11.7S-32.9,565-39.4,565S-51.1,559.7-51.1,553.3z
		 M-33.5,551.3h-3.9v-3.9h-3.9v3.9h-3.9v3.9h3.9v3.9h3.9v-3.9h3.9V551.3z"/>
</g>
<g id="ui-icon-circle-minus">
	<path class="st0" d="M-19.8,553.3c0-6.5,5.2-11.7,11.7-11.7s11.7,5.2,11.7,11.7S-1.7,565-8.1,565S-19.8,559.7-19.8,553.3z
		 M-2.3,551.3H-14v3.9h11.7V551.3z"/>
</g>
<g id="ui-icon-circle-close">
	<path class="st0" d="M11.4,553.3c0-6.5,5.2-11.7,11.7-11.7s11.7,5.2,11.7,11.7S29.6,565,23.1,565S11.4,559.7,11.4,553.3z M29,550.3
		l-2.9-2.9l-2.9,2.9l-2.9-2.9l-2.9,2.9l2.9,2.9l-2.9,2.9l2.9,2.9l2.9-2.9l2.9,2.9l2.9-2.9l-2.9-2.9L29,550.3z"/>
</g>
<g id="ui-icon-circle-triangle-e">
	<path class="st0" d="M42.7,553.3c0-6.5,5.2-11.7,11.7-11.7s11.7,5.2,11.7,11.7S60.8,565,54.4,565S42.7,559.7,42.7,553.3z
		 M50.5,559.1l9.8-5.9l-9.8-5.9V559.1z"/>
</g>
<g id="ui-icon-circle-triangle-s">
	<path class="st0" d="M85.6,541.5c6.5,0,11.7,5.2,11.7,11.7S92.1,565,85.6,565s-11.7-5.2-11.7-11.7S79.2,541.5,85.6,541.5z
		 M79.8,549.3l5.9,9.8l5.9-9.8H79.8z"/>
</g>
<g id="ui-icon-circle-triangle-w">
	<path class="st0" d="M128.6,553.3c0,6.5-5.2,11.7-11.7,11.7s-11.7-5.2-11.7-11.7s5.2-11.7,11.7-11.7S128.6,546.8,128.6,553.3z
		 M120.8,547.4l-9.8,5.9l9.8,5.9V547.4z"/>
</g>
<g id="ui-icon-circle-triangle-n">
	<path class="st0" d="M148.1,565c-6.5,0-11.7-5.2-11.7-11.7s5.2-11.7,11.7-11.7s11.7,5.2,11.7,11.7S154.6,565,148.1,565z M154,557.2
		l-5.9-9.8l-5.9,9.8H154z"/>
</g>
<g id="ui-icon-circle-arrow-e">
	<path class="st0" d="M191.1,553.3c0,6.5-5.2,11.7-11.7,11.7s-11.7-5.2-11.7-11.7s5.2-11.7,11.7-11.7S191.1,546.8,191.1,553.3z
		 M187.2,553.3l-5.9-5.9v3.9h-9.8v3.9h9.8v3.9L187.2,553.3z"/>
</g>
<g id="ui-icon-circle-arrow-n">
	<path class="st0" d="M210.6,565c-6.5,0-11.7-5.2-11.7-11.7s5.2-11.7,11.7-11.7s11.7,5.2,11.7,11.7S217.1,565,210.6,565z
		 M210.6,561.1l5.9-5.9h-3.9v-9.8h-3.9v9.8h-3.9L210.6,561.1z"/>
</g>
<g id="ui-icon-circle-arrow-w">
	<path class="st0" d="M230.2,553.3c0-6.5,5.2-11.7,11.7-11.7s11.7,5.2,11.7,11.7s-5.2,11.7-11.7,11.7S230.2,559.7,230.2,553.3z
		 M234.1,553.3l5.9,5.9v-3.9h9.8v-3.9h-9.8v-3.9L234.1,553.3z"/>
</g>
<g id="ui-icon-circle-arrow-s">
	<path class="st0" d="M273.1,541.5c6.5,0,11.7,5.2,11.7,11.7s-5.2,11.7-11.7,11.7s-11.7-5.2-11.7-11.7S266.7,541.5,273.1,541.5z
		 M273.1,545.4l-5.9,5.9h3.9v9.8h3.9v-9.8h3.9L273.1,545.4z"/>
</g>
<g id="ui-icon-circle-zoomin">
	<path class="st0" d="M292.7,553.3c0-6.5,5.2-11.7,11.7-11.7s11.7,5.2,11.7,11.7s-5.2,11.7-11.7,11.7S292.7,559.7,292.7,553.3z
		 M305.4,547.4c-2.7,0-4.9,2.2-4.9,4.9c0,0.8,0.2,1.6,0.6,2.3l-4.5,4.5l2,2l4.5-4.5c0.7,0.4,1.5,0.6,2.3,0.6c2.7,0,4.9-2.2,4.9-4.9
		S308,547.4,305.4,547.4z"/>
	<rect x="302.4" y="551.3" class="st0" width="5.9" height="2"/>
	<rect x="304.4" y="549.3" class="st0" width="2" height="5.9"/>
</g>
<g id="ui-icon-circle-zoomout">
	<path class="st0" d="M323.9,553.3c0-6.5,5.2-11.7,11.7-11.7s11.7,5.2,11.7,11.7s-5.2,11.7-11.7,11.7S323.9,559.7,323.9,553.3z
		 M336.6,547.4c-2.7,0-4.9,2.2-4.9,4.9c0,0.8,0.2,1.6,0.6,2.3l-4.5,4.5l2,2l4.5-4.5c0.7,0.4,1.5,0.6,2.3,0.6c2.7,0,4.9-2.2,4.9-4.9
		S339.3,547.4,336.6,547.4z"/>
	<rect x="333.7" y="551.3" class="st0" width="5.9" height="2"/>
</g>
<g id="ui-icon-circle-check">
	<path class="st0" d="M355.2,553.3c0-6.5,5.2-11.7,11.7-11.7s11.7,5.2,11.7,11.7s-5.2,11.7-11.7,11.7S355.2,559.7,355.2,553.3z
		 M372.7,546.4l-9.8,9.8l-2-2l-2,2l3.9,3.9l11.7-11.7L372.7,546.4z"/>
</g>
<g id="ui-icon-circlesmall-plus">
	<path class="st0" d="M-51.1,584.5c0-6.5,5.2-11.7,11.7-11.7s11.7,5.2,11.7,11.7s-5.2,11.7-11.7,11.7S-51.1,591-51.1,584.5z
		 M-39.4,594.3c5.4,0,9.8-4.4,9.8-9.8s-4.4-9.8-9.8-9.8s-9.8,4.4-9.8,9.8S-44.8,594.3-39.4,594.3z"/>
	<rect x="-45.2" y="582.5" class="st0" width="11.7" height="3.9"/>
	<rect x="-41.3" y="578.6" class="st0" width="3.9" height="11.7"/>
</g>
<g id="ui-icon-circlesmall-minus">
	<rect x="-14" y="582.5" class="st0" width="11.7" height="3.9"/>
	<path class="st0" d="M-19.8,584.5c0-6.5,5.2-11.7,11.7-11.7S3.6,578,3.6,584.5s-5.2,11.7-11.7,11.7S-19.8,591-19.8,584.5z
		 M-8.1,594.3c5.4,0,9.8-4.4,9.8-9.8s-4.4-9.8-9.8-9.8c-5.4,0-9.8,4.4-9.8,9.8S-13.5,594.3-8.1,594.3z"/>
</g>
<g id="ui-icon-circlesmall-close">
	<polygon class="st0" points="17.3,581.6 20.2,578.6 29,587.4 26.1,590.4 	"/>
	<polygon class="st0" points="26.1,578.6 29,581.6 20.2,590.4 17.3,587.4 	"/>
	<path class="st0" d="M11.4,584.5c0-6.5,5.2-11.7,11.7-11.7s11.7,5.2,11.7,11.7s-5.2,11.7-11.7,11.7S11.4,591,11.4,584.5z
		 M23.1,594.3c5.4,0,9.8-4.4,9.8-9.8s-4.4-9.8-9.8-9.8s-9.8,4.4-9.8,9.8S17.7,594.3,23.1,594.3z"/>
</g>
<g id="ui-icon-squaresmall-plus">
	<path class="st0" d="M64.1,594.3H44.6v-19.5h19.5V594.3z M62.2,576.7H46.6v15.6h15.6V576.7z"/>
	<rect x="48.5" y="582.5" class="st0" width="11.7" height="3.9"/>
	<rect x="52.4" y="578.6" class="st0" width="3.9" height="11.7"/>
</g>
<g id="ui-icon-squaresmall-minus">
	<path class="st0" d="M95.4,594.3H75.9v-19.5h19.5V594.3z M93.4,576.7H77.8v15.6h15.6V576.7z"/>
	<rect x="79.8" y="582.5" class="st0" width="11.7" height="3.9"/>
</g>
<g id="ui-icon-squaresmall-close">
	<polygon class="st0" points="111,581.6 113.9,578.6 122.7,587.4 119.8,590.4 	"/>
	<polygon class="st0" points="119.8,578.6 122.7,581.6 113.9,590.4 111,587.4 	"/>
	<path class="st0" d="M126.6,594.3h-19.5v-19.5h19.5V594.3z M124.7,576.7h-15.6v15.6h15.6V576.7z"/>
</g>
<g id="ui-icon-grip-dotted-vertical">
	<rect x="-37.4" y="625.5" class="st0" width="2" height="2"/>
	<rect x="-43.3" y="625.5" class="st0" width="2" height="2"/>
	<rect x="-37.4" y="621.6" class="st0" width="2" height="2"/>
	<rect x="-43.3" y="621.6" class="st0" width="2" height="2"/>
	<rect x="-37.4" y="617.7" class="st0" width="2" height="2"/>
	<rect x="-43.3" y="617.7" class="st0" width="2" height="2"/>
	<rect x="-37.4" y="613.8" class="st0" width="2" height="2"/>
	<rect x="-43.3" y="613.8" class="st0" width="2" height="2"/>
	<rect x="-37.4" y="609.9" class="st0" width="2" height="2"/>
	<rect x="-43.3" y="609.9" class="st0" width="2" height="2"/>
	<rect x="-37.4" y="606" class="st0" width="2" height="2"/>
	<rect x="-43.3" y="606" class="st0" width="2" height="2"/>
</g>
<g id="ui-icon-grip-dotted-horizontal">
	<rect x="-17.9" y="617.7" class="st0" width="2" height="2"/>
	<rect x="-17.9" y="611.8" class="st0" width="2" height="2"/>
	<rect x="-14" y="617.7" class="st0" width="2" height="2"/>
	<rect x="-14" y="611.8" class="st0" width="2" height="2"/>
	<rect x="-10.1" y="617.7" class="st0" width="2" height="2"/>
	<rect x="-10.1" y="611.8" class="st0" width="2" height="2"/>
	<rect x="-6.2" y="617.7" class="st0" width="2" height="2"/>
	<rect x="-6.2" y="611.8" class="st0" width="2" height="2"/>
	<rect x="-2.3" y="617.7" class="st0" width="2" height="2"/>
	<rect x="-2.3" y="611.8" class="st0" width="2" height="2"/>
	<rect x="1.6" y="617.7" class="st0" width="2" height="2"/>
	<rect x="1.6" y="611.8" class="st0" width="2" height="2"/>
</g>
<g id="ui-icon-grip-solid-vertical">
	<rect x="19.2" y="604" class="st0" width="2" height="23.4"/>
	<rect x="25.1" y="604" class="st0" width="2" height="23.4"/>
</g>
<g id="ui-icon-grip-solid-horizontal">
	<rect x="42.7" y="617.7" class="st0" width="23.4" height="2"/>
	<rect x="42.7" y="611.8" class="st0" width="23.4" height="2"/>
</g>
<g id="ui-icon-gripsmall-diagonal-se">
	<polygon class="st0" points="95.4,619.7 89.5,625.5 87.6,625.5 95.4,617.7 	"/>
	<polygon class="st0" points="95.4,613.8 83.7,625.5 81.7,625.5 95.4,611.8 	"/>
	<polygon class="st0" points="95.4,607.9 77.8,625.5 75.9,625.5 95.4,606 	"/>
</g>
<g id="ui-icon-grip-diagonal-se">
	<polygon class="st0" points="128.6,621.6 122.7,627.5 120.8,627.5 120.8,625.5 126.6,619.7 128.6,619.7 	"/>
	<polygon class="st0" points="128.6,613.8 114.9,627.5 113,627.5 113,625.5 126.6,611.8 128.6,611.8 	"/>
	<polygon class="st0" points="128.6,606 107.1,627.5 105.2,627.5 105.2,625.3 126.4,604 128.6,604 	"/>
</g>
<g id="ui-icon-play_1_">
	<polygon class="st0" points="281.9,481 281.9,500.5 264.3,490.8 	"/>
</g>
</svg>
