<svg xmlns="http://www.w3.org/2000/svg" viewBox="-237 113 500 419.334">
  <defs>
    <style>
      .cls-1 {
        fill: none;
      }

      .cls-2 {
        fill: #cee1e6;
      }

      .cls-3 {
        fill: #295d87;
      }

      .cls-4 {
        fill: #3d6889;
      }
    </style>
  </defs>
  <g id="Group_10" data-name="Group 10" transform="translate(-415 -53)">
    <path id="Path_4" data-name="Path 4" class="cls-1" d="M465,56.814H24V344.807H465Zm-48.969,52.735H76.736V300.821a14.75,14.75,0,1,1-29.5,0V94.8a14.749,14.749,0,0,1,14.75-14.75H416.033a14.75,14.75,0,1,1,0,29.5Z" transform="translate(183.499 138.685)"/>
    <rect id="Rectangle_1" data-name="Rectangle 1" class="cls-2" width="99.263" height="42.844" transform="translate(378.369 512.991)"/>
    <path id="Path_5" data-name="Path 5" class="cls-3" d="M485.25,379.8A14.75,14.75,0,0,0,500,365.055V47.564a14.75,14.75,0,0,0-14.75-14.75H14.75A14.75,14.75,0,0,0,0,47.564V365.055A14.75,14.75,0,0,0,14.75,379.8h156.12v42.844H14.75a14.75,14.75,0,0,0,0,29.5h470.5a14.75,14.75,0,0,0,0-29.5H329.13V379.8ZM299.63,422.649H200.367V379.805H299.63Zm14.75-72.343H29.5V62.313h441V350.306Z" transform="translate(178 133.186)"/>
    <path id="Path_6" data-name="Path 6" class="cls-4" d="M247.248,75.718H51.077A8.172,8.172,0,0,0,42.9,83.891V198.043a8.172,8.172,0,1,0,16.345,0V92.063h188a8.172,8.172,0,0,0,0-16.345Z" transform="translate(192.223 142.676)"/>
    <g id="Group_9" data-name="Group 9" transform="translate(347.621 274.164)">
      <path id="Path_8" data-name="Path 8" class="cls-2" d="M159.788,34.894A79.894,79.894,0,1,1,79.894-45a79.895,79.895,0,0,1,79.894,79.894" transform="translate(0 45)"/>
      <path id="SVGCleanerId_0" class="cls-3" d="M150.193,155.424c0,8.584-4.967,15.535-11.1,15.535S128,164.008,128,155.424s4.967-15.535,11.1-15.535,11.1,6.955,11.1,15.535" transform="translate(-88.053 -82.188)"/>
      <path id="SVGCleanerId_0_1_" class="cls-3" d="M335.082,155.424c0,8.584-4.967,15.535-11.1,15.535s-11.1-6.951-11.1-15.535,4.967-15.535,11.1-15.535,11.1,6.955,11.1,15.535" transform="translate(-210.17 -82.188)"/>
      <path id="Path_9" data-name="Path 9" class="cls-3" d="M75.545,66.964A4.439,4.439,0,0,1,72,59.862c14.478-19.308,33.8-19.529,34.621-19.529a4.439,4.439,0,0,1,.018,8.877c-.688.009-15.841.382-27.537,15.979a4.437,4.437,0,0,1-3.555,1.775" transform="translate(-48.919 -13.701)"/>
      <path id="Path_10" data-name="Path 10" class="cls-3" d="M348.417,66.964a4.424,4.424,0,0,1-3.555-1.775c-11.718-15.628-26.9-15.974-27.545-15.979a4.439,4.439,0,0,1,.027-8.877c.817,0,20.138.222,34.621,19.529a4.439,4.439,0,0,1-3.547,7.1" transform="translate(-215.26 -13.701)"/>
      <path id="Path_11" data-name="Path 11" class="cls-3" d="M226.54,308.659c-.053-.2-5.087-19.436-24.345-19.436s-24.3,19.241-24.345,19.436a2.2,2.2,0,0,0,1.025,2.415,2.264,2.264,0,0,0,2.645-.266c.044-.031,4.5-3.83,20.675-3.83,15.93,0,20.493,3.684,20.666,3.83a2.218,2.218,0,0,0,3.679-2.148" transform="translate(-122.301 -184.917)"/>
    </g>
  </g>
</svg>
