<?xml version="1.0" encoding="utf-8"?>
<!-- Generator: Adobe Illustrator 19.0.1, SVG Export Plug-In . SVG Version: 6.00 Build 0)  -->
<svg version="1.1" id="Layer_1" xmlns="http://www.w3.org/2000/svg" xmlns:xlink="http://www.w3.org/1999/xlink" x="0px" y="0px"
	 viewBox="0 0 115 15" style="enable-background:new 0 0 115 15;" xml:space="preserve">
<style type="text/css">
	.st0{fill:#fff;}
</style>
<g>
	<path id="appbar.camera.flash.off" class="st0" d="M9.1,9l1-1l3.7,3.5l-1,1L9.1,9L9.1,9z M1,1h1.8l2,1.9L4,3.9L1,1L1,1z M12.3,0.5
		l-4.7,5h4.2l-8.4,8L6.5,7H2.8L7,0.5H12.3L12.3,0.5z"/>
	<g>
		<path class="st0" d="M19.1,1.8v3.4c-0.3,0-0.5,0.1-0.7,0.2c-0.2,0.1-0.4,0.3-0.5,0.4c-0.1,0.2-0.2,0.4-0.3,0.6
			c-0.1,0.2-0.1,0.4-0.1,0.7c0,0.2,0,0.5,0.1,0.7c0.1,0.2,0.2,0.5,0.3,0.7c0.1,0.2,0.3,0.4,0.5,0.6c0.2,0.2,0.4,0.4,0.6,0.5
			c0.2,0.2,0.5,0.3,0.7,0.3c0.3,0.1,0.5,0.1,0.8,0.1c0.6,0,1-0.1,1.4-0.2c0.4-0.1,0.7-0.3,0.9-0.6c0.2-0.2,0.4-0.5,0.5-0.8
			c0.1-0.3,0.1-0.6,0.1-1V6.6c0.3,0,0.6,0,0.9,0.1c0.3,0,0.5,0.1,0.7,0.2c0.2,0.1,0.4,0.2,0.5,0.3c0.1,0.2,0.2,0.3,0.2,0.5
			c0,0.4,0,0.7,0,1c0,0.3,0,0.5-0.1,0.8c0,0.2-0.1,0.4-0.2,0.6c-0.1,0.2-0.2,0.3-0.4,0.4c-0.2,0.1-0.4,0.2-0.6,0.2
			c-0.3,0-0.6,0.1-0.9,0.1h-3.1c-0.5,0-1,0-1.4,0.1c-0.4,0.1-0.7,0.2-1,0.4c-0.3,0.1-0.5,0.3-0.7,0.5c-0.2,0.2-0.3,0.4-0.4,0.6
			c-0.1,0.2-0.2,0.4-0.2,0.6c0,0.2-0.1,0.4-0.1,0.6h1.5c0-0.1,0-0.2,0-0.3c0-0.1,0.1-0.2,0.1-0.3c0-0.1,0.1-0.2,0.2-0.3
			c0.1-0.1,0.2-0.2,0.4-0.3c0.2-0.1,0.3-0.1,0.6-0.2c0.2-0.1,0.5-0.1,0.8-0.1h3.4c0.6,0,1.1-0.1,1.5-0.2c0.4-0.1,0.7-0.3,1-0.4
			c0.3-0.2,0.5-0.4,0.6-0.7c0.1-0.3,0.3-0.6,0.3-0.9c0.1-0.3,0.1-0.7,0.1-1.1c0-0.4,0-0.8,0-1.2c0-0.4-0.1-0.8-0.3-1.1
			c-0.2-0.3-0.4-0.6-0.7-0.8c-0.3-0.2-0.7-0.4-1-0.5c-0.4-0.1-0.8-0.2-1.2-0.2h-0.5V3.2h1.5V1.8H19.1L19.1,1.8z M22.1,7.2
			c0,0.2,0,0.4-0.1,0.6C22,8,21.9,8.2,21.8,8.3c-0.1,0.1-0.3,0.2-0.4,0.3c-0.2,0.1-0.4,0.1-0.6,0.1c-0.2,0-0.3,0-0.5-0.1
			c-0.2-0.1-0.4-0.2-0.5-0.3c-0.2-0.1-0.3-0.3-0.4-0.4c-0.1-0.2-0.2-0.3-0.2-0.5c0-0.2,0-0.3,0.1-0.4c0.1-0.1,0.1-0.2,0.2-0.2
			c0.1-0.1,0.2-0.1,0.3-0.1c0.1,0,0.3,0,0.4,0h1.9V7.2L22.1,7.2z M20.6,5.3V3.2h1.5v2.1H20.6L20.6,5.3z"/>
		<path class="st0" d="M31.6,10.3l-1.3,0.3l0.4-1.2L31.6,10.3z M32.6,10.2l-1.8-1.7l-0.6,0.2L29.4,11l0.5,0.4l2.6-0.6L32.6,10.2z
			 M31.2,7.9l5.7-5.1l2,1.8l-5.7,5.1L31.2,7.9z M30.4,8.2l2.5,2.3h0.5l6.2-5.6V4.4l-2.5-2.3h-0.5l-6.2,5.6V8.2z M39.8,3.7L38,2
			l1.2-0.7l1.5,1.3L39.8,3.7z M40.2,4.4l1.2-1.7l0-0.4l-1.9-1.7l-0.5,0l-1.8,1.1l-0.1,0.5l2.5,2.3L40.2,4.4z"/>
	</g>
	<g>
		<path class="st0" d="M58.7,10.3v2.2h8.2V1.6h-8.2V10.3h-1.2V0.5h10.5v13H57.5v-3.3H58.7z"/>
		<path class="st0" d="M56.4,1.6V0.5h-7v13h7v-1.1h-5.9V1.6H56.4z"/>
	</g>
	<path id="appbar.camera.flash" class="st0" d="M85.9,0.5l-4.9,5h4.4l-8.8,8L79.8,7H76l4.4-6.5H85.9L85.9,0.5z"/>
	<path class="st0" d="M95.4,10.3v2.2h15.5V1.6H95.4V10.3h-1.1V0.5H112v13H94.2v-3.3H95.4z"/>
</g>
</svg>
