<?xml version="1.0" standalone="no"?>
<!-- Generator: Adobe Fireworks 10, Export SVG Extension by Aaron Beall (http://fireworks.abeall.com) . Version: 0.6.1  -->
<!DOCTYPE svg PUBLIC "-//W3C//DTD SVG 1.1//EN" "http://www.w3.org/Graphics/SVG/1.1/DTD/svg11.dtd">
<svg id="Untitled-Page%201" viewBox="0 0 40 34" style="background-color:#ffffff00" version="1.1"
	xmlns="http://www.w3.org/2000/svg" xmlns:xlink="http://www.w3.org/1999/xlink" xml:space="preserve"
	x="0px" y="0px" width="40px" height="34px"
>
	<g id="Layer%201">
		<g>
			<rect opacity="0" x="0.5" y="0" width="39" height="34" fill="#111111" rx="3" ry="3"/>
			<g opacity="0.902">
				<g>
					<path d="M 6 9 L 6 14 C 5.625 14.0625 5.3281 14.1875 5.0781 14.3438 C 4.8281 14.5156 4.6094 14.7188 4.4531 14.9688 C 4.2969 15.2188 4.1719 15.4844 4.1094 15.7969 C 4.0313 16.1094 4 16.4219 4 16.7656 C 4 17.0938 4.0469 17.4219 4.1563 17.75 C 4.25 18.0938 4.3906 18.4063 4.5781 18.7188 C 4.7656 19.0313 4.9844 19.3281 5.25 19.6094 C 5.5 19.8906 5.7813 20.125 6.0938 20.3281 C 6.3906 20.5469 6.7031 20.7031 7.0469 20.8281 C 7.3906 20.9531 7.7344 21 8.0938 21 C 8.8438 21 9.4688 20.9063 9.9688 20.7031 C 10.4688 20.5 10.8594 20.2344 11.1719 19.8906 C 11.4688 19.5469 11.6875 19.1563 11.8125 18.7031 C 11.9375 18.25 12 17.7656 12 17.2656 L 12 16 C 12.4219 16 12.8125 16.0313 13.1875 16.0781 C 13.5469 16.125 13.8594 16.2031 14.1406 16.3281 C 14.4063 16.4531 14.6094 16.6094 14.7656 16.8125 C 14.9219 17.0313 15 17.2969 15 17.6094 C 15 18.125 14.9844 18.5938 14.9844 19 C 14.9688 19.4063 14.9375 19.7813 14.875 20.0938 C 14.8125 20.4219 14.7344 20.7031 14.6094 20.9375 C 14.4844 21.1719 14.3125 21.375 14.0938 21.5313 C 13.875 21.6875 13.5938 21.7969 13.2656 21.8906 C 12.9219 21.9531 12.5156 22 12.0469 22 L 8.0313 22 C 7.3125 22 6.7031 22.0625 6.1875 22.1875 C 5.6563 22.3125 5.2188 22.4688 4.8438 22.7031 C 4.4688 22.9063 4.1719 23.1563 3.9375 23.4375 C 3.6875 23.7188 3.5 24 3.3594 24.2969 C 3.2188 24.5781 3.125 24.875 3.0781 25.1875 C 3.0156 25.4688 3 25.75 3 26 L 5 26 C 5 25.875 5 25.75 5.0313 25.6094 C 5.0625 25.4531 5.1094 25.3125 5.1719 25.1719 C 5.2344 25.0156 5.3281 24.875 5.4531 24.7344 C 5.5781 24.5781 5.7344 24.4531 5.9375 24.3594 C 6.1406 24.25 6.3906 24.1563 6.6875 24.1094 C 6.9688 24.0313 7.3281 24 7.7344 24 L 12.2031 24 C 12.9844 24 13.6406 23.9219 14.1875 23.7813 C 14.7188 23.6094 15.1719 23.4063 15.5313 23.1406 C 15.875 22.8438 16.1563 22.5156 16.3594 22.1406 C 16.5469 21.75 16.7031 21.3125 16.7969 20.8438 C 16.8906 20.375 16.9531 19.8594 16.9688 19.3125 C 16.9844 18.7813 17 18.2031 17 17.5938 C 17 17 16.875 16.4688 16.6406 16.0156 C 16.4063 15.5625 16.0938 15.1875 15.7031 14.8906 C 15.2969 14.5938 14.8438 14.375 14.3281 14.2188 C 13.7969 14.0781 13.25 14 12.6875 14 L 12 14 L 12 11 L 14 11 L 14 9 L 6 9 L 6 9 ZM 10 16.8438 C 10 17.1719 9.9531 17.4688 9.8906 17.7344 C 9.8125 18 9.7031 18.2188 9.5469 18.4063 C 9.3906 18.5938 9.2031 18.75 8.9688 18.8438 C 8.7344 18.9531 8.4531 19 8.1406 19 C 7.9219 19 7.7031 18.9531 7.4531 18.8281 C 7.2031 18.7031 6.9688 18.5625 6.75 18.375 C 6.5313 18.1875 6.3438 17.9844 6.2031 17.75 C 6.0625 17.5156 6 17.2813 6 17.0469 C 6 16.8281 6.0313 16.6563 6.1094 16.5156 C 6.1875 16.3906 6.2969 16.2813 6.4375 16.2031 C 6.5625 16.125 6.7188 16.0781 6.8906 16.0469 C 7.0625 16.0156 7.25 16 7.4531 16 L 10 16 L 10 16.8438 L 10 16.8438 ZM 8 14 L 8 11 L 10 11 L 10 14 L 8 14 L 8 14 Z" fill="#3a87ad"/>
				</g>
				<path d="M 22.41 22.31 L 20.72 22.78 L 21.19 21.09 L 22.41 22.31 ZM 23.7205 22.2053 L 21.2947 19.7795 L 20.4596 19.9985 L 19.5184 23.3654 L 20.1346 23.9815 L 23.5015 23.0404 L 23.7205 22.2053 ZM 21.95 18.92 L 29.43 11.44 L 32.06 14.07 L 24.58 21.55 L 21.95 18.92 ZM 20.8907 19.2737 L 24.2263 22.6092 L 24.9334 22.6092 L 33.1207 14.422 L 33.1207 13.7149 L 29.7851 10.3794 L 29.0779 10.3794 L 20.8907 18.5666 L 20.8907 19.2737 ZM 33.295 12.68 L 30.82 10.205 L 32.4 9.145 L 34.355 11.1 L 33.295 12.68 ZM 33.7888 13.7405 L 35.4153 11.3147 L 35.3536 10.6827 L 32.8174 8.1464 L 32.1854 8.0847 L 29.7595 9.7112 L 29.6844 10.4801 L 33.02 13.8156 L 33.7888 13.7405 Z" fill="#3a87ad"/>
			</g>
		</g>
	</g>
</svg>